999
"DXF R12 Output" (www.mydxf.blogspot.com)
 0 
SECTION
 2 
HEADER
 9 
$ACADVER
 1 
AC1009
 9 
$EXTMIN
 10 
 0 
 20 
 0 
 9 
$EXTMAX
 10 
 8.5 
 20 
 11 
 0 
ENDSEC
 0 
SECTION
 2 
ENTITIES
0
POLYLINE
8
Layer 1
62
10
70
0
10
0.000000
20
0.000000
66
1
0
VERTEX
8
Layer 1
10
351.500000
20
664.500000
70
0
0
VERTEX
8
Layer 1
10
351.500000
20
614.500000
70
0
0
VERTEX
8
Layer 1
10
343.500000
20
614.500000
70
0
0
VERTEX
8
Layer 1
10
343.500000
20
564.500000
70
0
0
VERTEX
8
Layer 1
10
351.500000
20
564.500000
70
0
0
VERTEX
8
Layer 1
10
351.500000
20
514.500000
70
0
0
VERTEX
8
Layer 1
10
343.500000
20
514.500000
70
0
0
VERTEX
8
Layer 1
10
343.500000
20
464.500000
70
0
0
VERTEX
8
Layer 1
10
351.500000
20
464.500000
70
0
0
VERTEX
8
Layer 1
10
351.500000
20
414.500000
70
0
0
VERTEX
8
Layer 1
10
351.500000
20
406.500000
70
0
0
VERTEX
8
Layer 1
10
343.500000
20
406.500000
70
0
0
VERTEX
8
Layer 1
10
293.500000
20
406.500000
70
0
0
VERTEX
8
Layer 1
10
293.500000
20
414.500000
70
0
0
VERTEX
8
Layer 1
10
243.500000
20
414.500000
70
0
0
VERTEX
8
Layer 1
10
243.500000
20
406.500000
70
0
0
VERTEX
8
Layer 1
10
193.500000
20
406.500000
70
0
0
VERTEX
8
Layer 1
10
193.500000
20
414.500000
70
0
0
VERTEX
8
Layer 1
10
143.500000
20
414.500000
70
0
0
VERTEX
8
Layer 1
10
143.500000
20
406.500000
70
0
0
VERTEX
8
Layer 1
10
93.500000
20
406.500000
70
0
0
VERTEX
8
Layer 1
10
93.500000
20
414.500000
70
0
0
VERTEX
8
Layer 1
10
43.500000
20
414.500000
70
0
0
VERTEX
8
Layer 1
10
43.500000
20
406.500000
70
0
0
VERTEX
8
Layer 1
10
-41.500000
20
406.500000
70
0
0
VERTEX
8
Layer 1
10
-41.500000
20
414.500000
70
0
0
VERTEX
8
Layer 1
10
-91.500000
20
414.500000
70
0
0
VERTEX
8
Layer 1
10
-91.500000
20
406.500000
70
0
0
VERTEX
8
Layer 1
10
-141.500000
20
406.500000
70
0
0
VERTEX
8
Layer 1
10
-141.500000
20
414.500000
70
0
0
VERTEX
8
Layer 1
10
-191.500000
20
414.500000
70
0
0
VERTEX
8
Layer 1
10
-191.500000
20
406.500000
70
0
0
VERTEX
8
Layer 1
10
-241.500000
20
406.500000
70
0
0
VERTEX
8
Layer 1
10
-241.500000
20
414.500000
70
0
0
VERTEX
8
Layer 1
10
-291.500000
20
414.500000
70
0
0
VERTEX
8
Layer 1
10
-291.500000
20
406.500000
70
0
0
VERTEX
8
Layer 1
10
-341.500000
20
406.500000
70
0
0
VERTEX
8
Layer 1
10
-349.500000
20
406.500000
70
0
0
VERTEX
8
Layer 1
10
-349.500000
20
414.500000
70
0
0
VERTEX
8
Layer 1
10
-349.500000
20
464.500000
70
0
0
VERTEX
8
Layer 1
10
-341.500000
20
464.500000
70
0
0
VERTEX
8
Layer 1
10
-341.500000
20
514.500000
70
0
0
VERTEX
8
Layer 1
10
-349.500000
20
514.500000
70
0
0
VERTEX
8
Layer 1
10
-349.500000
20
564.500000
70
0
0
VERTEX
8
Layer 1
10
-341.500000
20
564.500000
70
0
0
VERTEX
8
Layer 1
10
-341.500000
20
614.500000
70
0
0
VERTEX
8
Layer 1
10
-349.500000
20
614.500000
70
0
0
VERTEX
8
Layer 1
10
-349.500000
20
664.500000
70
0
0
VERTEX
8
Layer 1
10
-341.500000
20
664.500000
70
0
0
VERTEX
8
Layer 1
10
343.500000
20
664.500000
70
0
0
VERTEX
8
Layer 1
10
351.500000
20
664.500000
70
0
0
SEQEND
8
Layer 1
0
POLYLINE
8
Layer 1
62
10
70
0
10
0.000000
20
0.000000
66
1
0
VERTEX
8
Layer 1
10
351.500000
20
289.000000
70
0
0
VERTEX
8
Layer 1
10
343.500000
20
289.000000
70
0
0
VERTEX
8
Layer 1
10
301.500000
20
289.000000
70
0
0
VERTEX
8
Layer 1
10
301.500000
20
288.078003
70
0
0
VERTEX
8
Layer 1
10
301.500000
20
281.000000
70
0
0
VERTEX
8
Layer 1
10
293.500000
20
281.000000
70
0
0
VERTEX
8
Layer 1
10
251.501007
20
281.000000
70
0
0
VERTEX
8
Layer 1
10
251.501007
20
288.078003
70
0
0
VERTEX
8
Layer 1
10
251.498993
20
288.078003
70
0
0
VERTEX
8
Layer 1
10
251.498993
20
289.000000
70
0
0
VERTEX
8
Layer 1
10
243.500000
20
289.000000
70
0
0
VERTEX
8
Layer 1
10
201.498001
20
289.000000
70
0
0
VERTEX
8
Layer 1
10
201.498001
20
288.078003
70
0
0
VERTEX
8
Layer 1
10
201.498001
20
281.000000
70
0
0
VERTEX
8
Layer 1
10
193.500000
20
281.000000
70
0
0
VERTEX
8
Layer 1
10
151.498993
20
281.000000
70
0
0
VERTEX
8
Layer 1
10
151.498993
20
288.078003
70
0
0
VERTEX
8
Layer 1
10
151.496994
20
288.078003
70
0
0
VERTEX
8
Layer 1
10
151.496994
20
289.000000
70
0
0
VERTEX
8
Layer 1
10
143.500000
20
289.000000
70
0
0
VERTEX
8
Layer 1
10
101.502998
20
289.000000
70
0
0
VERTEX
8
Layer 1
10
101.502998
20
302.001999
70
0
0
VERTEX
8
Layer 1
10
101.500000
20
302.001999
70
0
0
VERTEX
8
Layer 1
10
101.500000
20
317.873993
70
0
0
VERTEX
8
Layer 1
10
101.496002
20
317.873993
70
0
0
VERTEX
8
Layer 1
10
101.496002
20
318.496994
70
0
0
VERTEX
8
Layer 1
10
93.500000
20
318.496994
70
0
0
VERTEX
8
Layer 1
10
93.500000
20
343.130005
70
0
0
VERTEX
8
Layer 1
10
93.500000
20
343.500000
70
0
0
VERTEX
8
Layer 1
10
101.500000
20
343.500000
70
0
0
VERTEX
8
Layer 1
10
101.500000
20
372.921997
70
0
0
VERTEX
8
Layer 1
10
143.500000
20
372.921997
70
0
0
VERTEX
8
Layer 1
10
151.501007
20
372.921997
70
0
0
VERTEX
8
Layer 1
10
151.501007
20
381.000000
70
0
0
VERTEX
8
Layer 1
10
193.500000
20
381.000000
70
0
0
VERTEX
8
Layer 1
10
201.501999
20
381.000000
70
0
0
VERTEX
8
Layer 1
10
201.501999
20
372.921997
70
0
0
VERTEX
8
Layer 1
10
243.500000
20
372.921997
70
0
0
VERTEX
8
Layer 1
10
251.503006
20
372.921997
70
0
0
VERTEX
8
Layer 1
10
251.503006
20
381.000000
70
0
0
VERTEX
8
Layer 1
10
293.500000
20
381.000000
70
0
0
VERTEX
8
Layer 1
10
301.503998
20
381.000000
70
0
0
VERTEX
8
Layer 1
10
301.503998
20
372.921997
70
0
0
VERTEX
8
Layer 1
10
343.500000
20
372.921997
70
0
0
VERTEX
8
Layer 1
10
351.500000
20
372.921997
70
0
0
VERTEX
8
Layer 1
10
351.500000
20
302.001999
70
0
0
VERTEX
8
Layer 1
10
351.500000
20
289.000000
70
0
0
SEQEND
8
Layer 1
0
POLYLINE
8
Layer 1
62
10
70
0
10
0.000000
20
0.000000
66
1
0
VERTEX
8
Layer 1
10
-349.500000
20
343.500000
70
0
0
VERTEX
8
Layer 1
10
-341.500000
20
343.500000
70
0
0
VERTEX
8
Layer 1
10
-341.500000
20
372.921997
70
0
0
VERTEX
8
Layer 1
10
-291.500000
20
372.921997
70
0
0
VERTEX
8
Layer 1
10
-291.498993
20
372.921997
70
0
0
VERTEX
8
Layer 1
10
-291.498993
20
381.000000
70
0
0
VERTEX
8
Layer 1
10
-241.500000
20
381.000000
70
0
0
VERTEX
8
Layer 1
10
-241.498001
20
381.000000
70
0
0
VERTEX
8
Layer 1
10
-241.498001
20
372.921997
70
0
0
VERTEX
8
Layer 1
10
-191.500000
20
372.921997
70
0
0
VERTEX
8
Layer 1
10
-191.496994
20
372.921997
70
0
0
VERTEX
8
Layer 1
10
-191.496994
20
381.000000
70
0
0
VERTEX
8
Layer 1
10
-141.500000
20
381.000000
70
0
0
VERTEX
8
Layer 1
10
-141.496002
20
381.000000
70
0
0
VERTEX
8
Layer 1
10
-141.496002
20
372.921997
70
0
0
VERTEX
8
Layer 1
10
-91.500000
20
372.921997
70
0
0
VERTEX
8
Layer 1
10
-91.500000
20
302.001999
70
0
0
VERTEX
8
Layer 1
10
-91.500000
20
289.000000
70
0
0
VERTEX
8
Layer 1
10
-141.500000
20
289.000000
70
0
0
VERTEX
8
Layer 1
10
-141.500000
20
288.078003
70
0
0
VERTEX
8
Layer 1
10
-141.500000
20
281.000000
70
0
0
VERTEX
8
Layer 1
10
-191.498993
20
281.000000
70
0
0
VERTEX
8
Layer 1
10
-191.498993
20
288.078003
70
0
0
VERTEX
8
Layer 1
10
-191.500000
20
288.078003
70
0
0
VERTEX
8
Layer 1
10
-191.501007
20
288.078003
70
0
0
VERTEX
8
Layer 1
10
-191.501007
20
289.000000
70
0
0
VERTEX
8
Layer 1
10
-241.500000
20
289.000000
70
0
0
VERTEX
8
Layer 1
10
-241.501999
20
289.000000
70
0
0
VERTEX
8
Layer 1
10
-241.501999
20
288.078003
70
0
0
VERTEX
8
Layer 1
10
-241.501999
20
281.000000
70
0
0
VERTEX
8
Layer 1
10
-291.500000
20
281.000000
70
0
0
VERTEX
8
Layer 1
10
-291.501007
20
281.000000
70
0
0
VERTEX
8
Layer 1
10
-291.501007
20
288.078003
70
0
0
VERTEX
8
Layer 1
10
-291.502991
20
288.078003
70
0
0
VERTEX
8
Layer 1
10
-291.502991
20
289.000000
70
0
0
VERTEX
8
Layer 1
10
-341.497986
20
289.000000
70
0
0
VERTEX
8
Layer 1
10
-341.497986
20
302.001999
70
0
0
VERTEX
8
Layer 1
10
-341.500000
20
302.001999
70
0
0
VERTEX
8
Layer 1
10
-341.500000
20
317.873993
70
0
0
VERTEX
8
Layer 1
10
-341.503998
20
317.873993
70
0
0
VERTEX
8
Layer 1
10
-341.503998
20
318.496994
70
0
0
VERTEX
8
Layer 1
10
-349.500000
20
318.496994
70
0
0
VERTEX
8
Layer 1
10
-349.500000
20
343.130005
70
0
0
VERTEX
8
Layer 1
10
-349.500000
20
343.500000
70
0
0
SEQEND
8
Layer 1
0
POLYLINE
8
Layer 1
62
10
70
0
10
0.000000
20
0.000000
66
1
0
VERTEX
8
Layer 1
10
293.502014
20
682.503998
70
0
0
VERTEX
8
Layer 1
10
243.501999
20
682.503998
70
0
0
VERTEX
8
Layer 1
10
243.501999
20
690.505005
70
0
0
VERTEX
8
Layer 1
10
193.501007
20
690.505005
70
0
0
VERTEX
8
Layer 1
10
193.501007
20
682.503998
70
0
0
VERTEX
8
Layer 1
10
143.501007
20
682.503998
70
0
0
VERTEX
8
Layer 1
10
143.501007
20
690.505005
70
0
0
VERTEX
8
Layer 1
10
93.500999
20
690.505005
70
0
0
VERTEX
8
Layer 1
10
93.500999
20
682.503998
70
0
0
VERTEX
8
Layer 1
10
43.500000
20
682.503998
70
0
0
VERTEX
8
Layer 1
10
43.500000
20
690.505005
70
0
0
VERTEX
8
Layer 1
10
-41.500000
20
690.505005
70
0
0
VERTEX
8
Layer 1
10
-41.500000
20
682.503998
70
0
0
VERTEX
8
Layer 1
10
-91.500999
20
682.503998
70
0
0
VERTEX
8
Layer 1
10
-91.500999
20
690.505005
70
0
0
VERTEX
8
Layer 1
10
-141.501007
20
690.505005
70
0
0
VERTEX
8
Layer 1
10
-141.501007
20
682.503998
70
0
0
VERTEX
8
Layer 1
10
-191.501007
20
682.503998
70
0
0
VERTEX
8
Layer 1
10
-191.501007
20
690.505005
70
0
0
VERTEX
8
Layer 1
10
-241.501999
20
690.505005
70
0
0
VERTEX
8
Layer 1
10
-241.501999
20
682.503998
70
0
0
VERTEX
8
Layer 1
10
-291.502014
20
682.503998
70
0
0
VERTEX
8
Layer 1
10
-291.502014
20
690.505005
70
0
0
VERTEX
8
Layer 1
10
-341.502014
20
690.505005
70
0
0
VERTEX
8
Layer 1
10
-349.500000
20
690.505005
70
0
0
VERTEX
8
Layer 1
10
-349.500000
20
720.000000
70
0
0
VERTEX
8
Layer 1
10
-341.502014
20
720.000000
70
0
0
VERTEX
8
Layer 1
10
-341.497986
20
720.000000
70
0
0
VERTEX
8
Layer 1
10
-341.497986
20
745.005005
70
0
0
VERTEX
8
Layer 1
10
-341.502014
20
745.005005
70
0
0
VERTEX
8
Layer 1
10
-349.500000
20
745.005005
70
0
0
VERTEX
8
Layer 1
10
-349.500000
20
774.500000
70
0
0
VERTEX
8
Layer 1
10
-341.502014
20
774.500000
70
0
0
VERTEX
8
Layer 1
10
-291.502014
20
774.500000
70
0
0
VERTEX
8
Layer 1
10
-291.502014
20
782.500000
70
0
0
VERTEX
8
Layer 1
10
-241.501999
20
782.500000
70
0
0
VERTEX
8
Layer 1
10
-241.501999
20
774.500000
70
0
0
VERTEX
8
Layer 1
10
-191.501007
20
774.500000
70
0
0
VERTEX
8
Layer 1
10
-191.501007
20
782.500000
70
0
0
VERTEX
8
Layer 1
10
-141.501007
20
782.500000
70
0
0
VERTEX
8
Layer 1
10
-141.501007
20
774.500000
70
0
0
VERTEX
8
Layer 1
10
-91.500999
20
774.500000
70
0
0
VERTEX
8
Layer 1
10
-91.500999
20
782.500000
70
0
0
VERTEX
8
Layer 1
10
-41.500000
20
782.500000
70
0
0
VERTEX
8
Layer 1
10
-41.500000
20
774.500000
70
0
0
VERTEX
8
Layer 1
10
43.500000
20
774.500000
70
0
0
VERTEX
8
Layer 1
10
43.500000
20
782.500000
70
0
0
VERTEX
8
Layer 1
10
93.500999
20
782.500000
70
0
0
VERTEX
8
Layer 1
10
93.500999
20
774.500000
70
0
0
VERTEX
8
Layer 1
10
143.501007
20
774.500000
70
0
0
VERTEX
8
Layer 1
10
143.501007
20
782.500000
70
0
0
VERTEX
8
Layer 1
10
193.501007
20
782.500000
70
0
0
VERTEX
8
Layer 1
10
193.501007
20
774.500000
70
0
0
VERTEX
8
Layer 1
10
243.501999
20
774.500000
70
0
0
VERTEX
8
Layer 1
10
243.501999
20
782.500000
70
0
0
VERTEX
8
Layer 1
10
293.502014
20
782.500000
70
0
0
VERTEX
8
Layer 1
10
293.502014
20
774.500000
70
0
0
VERTEX
8
Layer 1
10
343.502014
20
774.500000
70
0
0
VERTEX
8
Layer 1
10
351.500000
20
774.500000
70
0
0
VERTEX
8
Layer 1
10
351.500000
20
745.005005
70
0
0
VERTEX
8
Layer 1
10
343.502014
20
745.005005
70
0
0
VERTEX
8
Layer 1
10
343.497986
20
745.005005
70
0
0
VERTEX
8
Layer 1
10
343.497986
20
720.000000
70
0
0
VERTEX
8
Layer 1
10
343.502014
20
720.000000
70
0
0
VERTEX
8
Layer 1
10
351.500000
20
720.000000
70
0
0
VERTEX
8
Layer 1
10
351.500000
20
690.505005
70
0
0
VERTEX
8
Layer 1
10
343.502014
20
690.505005
70
0
0
VERTEX
8
Layer 1
10
293.502014
20
690.505005
70
0
0
VERTEX
8
Layer 1
10
293.502014
20
682.503998
70
0
0
VERTEX
8
Layer 1
10
293.502014
20
682.503998
70
0
0
SEQEND
8
Layer 1
 0 
ENDSEC
 0 
EOF